<svg xmlns="http://www.w3.org/2000/svg" height="448pt" viewBox="0 0 448.15528 448" width="448pt" fill="#fff"><path d="m152.15625 384.078125h88v64h-88zm0 0"/><path d="m272.15625 200.078125c0-49.601563-27.199219-94.402344-69.601562-118.402344l11.199218-11.199219 10.402344 9.601563 11.199219-11.199219-32-32-11.199219 11.199219 10.398438 10.398437-15.199219 15.199219c-70.398438-28-149.601563 6.402344-177.601563 76-28 69.601563 6.402344 148.800781 76 176.800781 69.601563 28 148.800782-5.597656 176.800782-75.199218 6.402343-16.800782 9.601562-33.601563 9.601562-51.199219zm-101.601562-115.199219c8.800781 2.398438 17.601562 6.398438 25.601562 11.199219l-8 13.597656c-7.199219-4-14.402344-7.199219-22.402344-9.597656zm-17.597657-3.203125-2.402343 16c-7.199219-1.597656-14.398438-1.597656-21.597657-1.597656l-.800781-16c8 0 16.800781 0 24.800781 1.597656zm-42.402343.800781 3.199218 16c-8 1.601563-15.199218 4-22.398437 8l-7.199219-14.398437c8.800781-4 17.597656-7.199219 26.398438-9.601563zm25.601562 237.601563c-66.402344 0-120-53.601563-120-120 0-39.199219 19.199219-76 51.199219-98.402344l8.800781 12.800781c-47.199219 32.800782-58.402344 97.601563-25.601562 144.800782 32.800781 47.199218 97.601562 58.398437 144.800781 25.601562 28-19.203125 44.800781-50.402344 44.800781-84.800781 0-24.800781-8.800781-48.800781-24-68l-112 112-37.601562-37.601563 11.199218-11.199218 26.402344 26.398437 112-112 5.597656 5.601563c22.402344 22.398437 34.402344 52.800781 34.402344 84.800781 0 66.398437-53.601562 120-120 120zm0 0"/><path d="m152.15625 368.078125h88v-57.601563c-24 23.199219-55.199219 36.800782-88 40.800782zm0 0"/><path d="m112.15625 16.078125h48c4.800781 0 8-3.199219 8-8s-3.199219-8-8-8h-48c-4.800781 0-8 3.199219-8 8s3.199219 8 8 8zm0 0"/><path d="m136.15625 48.078125c2.398438 0 5.597656 0 8 .800781v-16.800781h-16v16.800781c2.398438-.800781 5.597656-.800781 8-.800781zm0 0"/><path d="m256.15625 384.078125h88v64h-88zm0 0"/><path d="m48.15625 440.078125c0 4.800781 3.199219 8 8 8h80v-64h-88zm0 0"/><path d="m48.15625 368.078125h88v-16c-31.199219 0-62.402344-9.601563-88-28zm0 0"/><path d="m288.15625 200.078125c0 2.398437 0 5.597656-.800781 8h56.800781v-64h-67.199219c7.199219 17.597656 11.199219 36.800781 11.199219 56zm0 0"/><path d="m360.15625 224.078125h88v64h-88zm0 0"/><path d="m360.15625 304.078125h88v64h-88zm0 0"/><path d="m360.15625 144.078125h88v64h-88zm0 0"/><path d="m440.15625 96.078125h-16v-32h-16v32h-16v-32h-16v32h-129.601562c8.800781 9.597656 16.800781 20 23.199218 32h178.402344v-24c0-4.800781-3.199219-8-8-8zm0 0"/><path d="m256.15625 304.078125h88v64h-88zm0 0"/><path d="m260.15625 288.078125h84v-64h-58.402344c-3.199218 23.199219-12 44.800781-25.597656 64zm0 0"/><path d="m360.15625 448.078125h80c4.800781 0 8-3.199219 8-8v-56h-88zm0 0"/></svg>